<?xml version="1.0" encoding="UTF-8"?><svg id="uuid-209537e3-7274-41de-9157-52f9ddcccea2" xmlns="http://www.w3.org/2000/svg" xmlns:xlink="http://www.w3.org/1999/xlink" viewBox="0 0 682.66689 682.66663"><defs><style>.uuid-229399ad-2de8-4c49-999d-56deea0a6cf0{fill:#ff5f7a;}.uuid-229399ad-2de8-4c49-999d-56deea0a6cf0,.uuid-9e2e7f49-911b-4acc-9506-90c49a793f86,.uuid-c9c62ad0-5045-4174-86dd-62236e58cd84,.uuid-beb3f978-d558-49ad-a27c-62d83737bf63,.uuid-31d89280-3d2e-405f-91a2-75aaa6f52af7,.uuid-5dbd4bef-a71c-4f4c-b190-b33eb7dcd035,.uuid-bcde1eb9-4634-4ca8-bf62-c16a867a0298{stroke-width:0px;}.uuid-9e2e7f49-911b-4acc-9506-90c49a793f86,.uuid-98b0ab95-2c55-429c-bf29-10177f4275d3{fill:none;}.uuid-98b0ab95-2c55-429c-bf29-10177f4275d3{stroke:#000;stroke-linecap:round;stroke-linejoin:round;stroke-width:20px;}.uuid-c9c62ad0-5045-4174-86dd-62236e58cd84{fill:#ffd18d;}.uuid-9524e556-040d-4d11-b6a2-7e9d46afe897{clip-path:url(#uuid-47c1ad45-9432-4d59-9dc5-cfb727dadb02);}.uuid-beb3f978-d558-49ad-a27c-62d83737bf63{fill:#fbbd80;}.uuid-31d89280-3d2e-405f-91a2-75aaa6f52af7{fill:#938c6d;}.uuid-5dbd4bef-a71c-4f4c-b190-b33eb7dcd035{fill:#a7a07c;}.uuid-bcde1eb9-4634-4ca8-bf62-c16a867a0298{fill:#ff7e92;}</style><clipPath id="uuid-47c1ad45-9432-4d59-9dc5-cfb727dadb02"><rect class="uuid-9e2e7f49-911b-4acc-9506-90c49a793f86" x=".00013" width="682.66663" height="682.66663"/></clipPath></defs><g id="uuid-4582d5f2-0d1e-497e-a7c5-a001b1b470ec"><g id="uuid-97b9b813-4fc8-4943-82f2-5697104dec5e"><g class="uuid-9524e556-040d-4d11-b6a2-7e9d46afe897"><g id="uuid-1ef0373f-798c-4430-9ece-05e2d91bbfdd"><g id="uuid-f5c6a7e1-4e4c-4560-8fee-6b9be79ee5e8"><path id="uuid-ea7bb104-f015-4eef-b327-1d01109ae9f6" class="uuid-c9c62ad0-5045-4174-86dd-62236e58cd84" d="M216.68438,438.86452l-81.01866-89.81866c-8.31067-9.57467-19.83067-14.67333-31.54399-15.092,0,0-.93867.13333-1.35467.13067-10.34266-.076-18.848,5.652-27.256,13.016,0,0-6.99334,5.14134-6.78934,9.47333l-.07866-143.46665c0-20.78933-14.31866-38.21732-33.59067-42.88132,0,0-6.76534-.50134-10.31866-.50134-8.084,0-9.93734,10.47467-9.93734,18.59466l.37467,197.50933c0,13.11733,4.36666,25.85733,12.40533,36.196l66.29999,85.23199c5.96666,7.73333,9.20533,17.23867,9.20533,27.02266l-1.71066,50.40933h137.39598l4.78267-29.73467v-44.37466c0-26.38667-9.548-51.87333-26.86533-71.71467"/></g><g id="uuid-079c7391-d4c6-4fd7-9bf2-9b76add35852"><path id="uuid-77c2f8b0-ab98-45e4-ad68-757fdd81a2c1" class="uuid-beb3f978-d558-49ad-a27c-62d83737bf63" d="M172.73586,465.10544h0c-4.412,2.63333-10.072,1.764-13.492-2.07067l-86.93867-97.49733c-2.42134-2.78934-3.61067-6.23733-3.61067-9.65867,0-4.10933,1.70267-8.17599,5.02-11.08133,8.74933-7.664,19.66267-11.224,30.408-10.84267-2.42267,1.39466-4.73466,3.06266-6.92134,4.96933-3.31733,2.908-5.02133,6.97334-5.02133,11.08399,0,3.42,1.19067,6.86933,3.612,9.65867l79.45067,89.10267c4.48133,5.024,3.27333,12.88667-2.50667,16.336"/></g><g id="uuid-753b7343-ee9c-44e6-ade6-4426986ebfd2"><path id="uuid-fe54fbd1-e955-4e7d-a8d5-56526d69d945" class="uuid-beb3f978-d558-49ad-a27c-62d83737bf63" d="M131.28266,554.95436c-5.15467,0-9.33333-4.17867-9.33333-9.33333v-9.60267c0-15.20666-5.12267-30.224-14.41467-42.26l-65.27732-84.58c-4.668-6.004-7.20666-13.41734-7.20666-20.96267l.00267-217.98935c-3.30266-.80668-6.76934-1.224-10.32266-1.224-4.036,0-7.70533,1.644-10.348,4.30135-2.64267,2.65601-4.28666,6.34135-4.28666,10.40666v204.50534c0,13.124,4.36,25.86533,12.404,36.2l65.27733,84.59333c5.97466,7.72133,9.21867,17.23333,9.21867,27.00933v44.624l146.55331.73333v-26.42133h-112.26666Z"/></g><g id="uuid-062d4e09-6f8b-4b91-9d8f-c04db5dfabe2"><path id="uuid-3d61872d-a335-4983-8b02-ba121bfa1cd4" class="uuid-5dbd4bef-a71c-4f4c-b190-b33eb7dcd035" d="M78.00986,631.05983l1.5-33.73067c0-8.10667,6.57067-14.68,14.67733-14.68l10.39733-2.744h144.77866c8.10667,0,14.67733,6.572,14.67733,14.68v25.05866l-3.44934,10.97867c0,8.10667-6.57332,14.67867-14.68,14.67867l-153.22264.43733c-8.10667,0-14.67867-6.572-14.67867-14.67867"/></g><g id="uuid-cde60a49-5d0b-4cb4-b483-f20792c575a4"><path id="uuid-9b9abfad-3d38-4030-9bb2-ea67a0a9302a" class="uuid-31d89280-3d2e-405f-91a2-75aaa6f52af7" d="M264.04119,619.64449v14.67867c0,8.10667-6.572,14.68-14.67867,14.68H89.9052c-8.10667,0-14.67867-6.57333-14.67867-14.68v-39.736c0-8.10667,6.572-14.67866,14.67867-14.67866h14.68v30.40266c0,5.15467,4.17867,9.33333,9.33333,9.33333h150.12266Z"/></g><g id="uuid-b372d9ce-d35e-48d4-bbaf-1026cc1e8df3"><path id="uuid-f86dec6a-16c4-42e2-b8cf-bfd99c130a17" class="uuid-c9c62ad0-5045-4174-86dd-62236e58cd84" d="M465.98249,438.86452l81.01866-89.81866c8.31467-9.57866,19.84266-14.67867,31.56133-15.09333,0,0,1,.16667,1.41066.164,10.34267-.07467,18.77467,5.62,27.18267,12.984,0,0,6.99334,5.14134,6.78934,9.47333l.07866-143.46665c0-20.78933,14.31866-38.21732,33.59067-42.88132,0,0,.88666.07867,1.30001-.008,2.93066-.62,5.90533-1.21466,9.01868-1.21466,8.084,0,9.93734,11.196,9.93734,19.316l-.37469,197.5093c0,13.11733-4.36666,25.85733-12.40533,36.196l-66.29998,85.23199c-5.96666,7.73333-9.20533,17.23867-9.20533,27.02266l1.71066,50.40933h-137.39599l-4.78267-29.73467v-44.37466c0-26.38667,9.548-51.87333,26.86533-71.71466"/></g><g id="uuid-8c1c0c5e-26de-47e1-93c5-2f9168bf09fe"><path id="uuid-ff8340b9-2123-4cd0-8e40-ac384dde11b6" class="uuid-beb3f978-d558-49ad-a27c-62d83737bf63" d="M509.93105,465.10544h0c4.412,2.63333,10.072,1.764,13.492-2.07067l86.93867-97.49733c2.42134-2.78934,3.61067-6.23733,3.61067-9.65867,0-4.10933-1.70267-8.17599-5.02-11.08133-8.74933-7.664-19.644-11.22533-30.38933-10.844,2.42267,1.39466,4.716,3.064,6.90267,4.97066,3.31733,2.908,5.02133,6.97334,5.02133,11.08399,0,3.42-1.19067,6.86933-3.612,9.65867l-79.45067,89.10267c-4.48133,5.024-3.27333,12.88667,2.50667,16.336"/></g><g id="uuid-6af31a8c-5809-431a-a5ed-b982a4dd1879"><path id="uuid-1fe1d044-0b9d-43c4-a4ac-1fc2049ce26b" class="uuid-beb3f978-d558-49ad-a27c-62d83737bf63" d="M551.38421,554.95436c5.15467,0,9.33333-4.17867,9.33333-9.33333v-9.60267c0-15.20666,5.12267-30.224,14.41467-42.26l65.27732-84.58c4.668-6.004,7.20666-13.41734,7.20666-20.96267l-.00267-217.98935c3.30266-.80668,6.76934-1.224,10.32266-1.224,4.036,0,7.70533,1.644,10.348,4.30135,2.64267,2.65601,4.28666,6.34135,4.28666,10.40666v204.50534c0,13.124-4.36,25.86533-12.404,36.2l-65.27731,84.59333c-5.97467,7.72133-9.21867,17.23333-9.21867,27.00933v44.624l-146.55332.73333v-26.42133h112.26666Z"/></g><g id="uuid-c782483b-51d6-4e4c-b7c1-f2bc25faa814"><path id="uuid-b24fce57-8030-4f41-a0c8-05ed7f2ec2a9" class="uuid-5dbd4bef-a71c-4f4c-b190-b33eb7dcd035" d="M421.40839,631.05983l1.5-33.73067c0-8.10667,6.572-14.68,14.67867-14.68l10.396-2.744h144.77866c8.10667,0,14.67867,6.572,14.67867,14.68v25.05866l-3.45066,10.97867c0,8.10667-6.57332,14.67867-14.68,14.67867l-153.22266.43733c-8.10667,0-14.67867-6.572-14.67867-14.67867"/></g><g id="uuid-679e62ad-7652-4b24-a4b5-2aa246358737"><path id="uuid-4d3438e6-ef7d-4adb-956e-88c1a41cf184" class="uuid-31d89280-3d2e-405f-91a2-75aaa6f52af7" d="M607.44024,619.64449v14.67867c0,8.10667-6.572,14.68-14.67867,14.68h-159.45733c-8.10667,0-14.67867-6.57333-14.67867-14.68v-39.736c0-8.10667,6.572-14.67866,14.67867-14.67866h14.67867v30.40266c0,5.15467,4.18,9.33333,9.33333,9.33333h150.12399Z"/></g><g id="uuid-673f9120-05f3-44c0-9aa8-8e010c5d1979"><path id="uuid-d87ad797-b93e-415d-a822-35570a61e2d7" class="uuid-bcde1eb9-4634-4ca8-bf62-c16a867a0298" d="M344.88809,74.2812l3.70133-3.70133c49.46533-49.464,129.66133-49.46267,179.12532.00133l.00267.00267c44.80534,44.804,44.80399,117.44665,0,162.25066l-165.26932,165.26666-11.57067,7.48665c-4.94667,4.94668-12.96667,4.94668-17.912,0l-169.24932-174.68666c-44.80399-44.80399-50.932-113.756-6.12799-158.56132,9.47066-9.47067,16.99733-18.88667,28.28933-24.73067,47.688-24.68,107.772-17.02267,147.76665,22.97067l3.70133,3.70133c2.08267,2.08267,5.46,2.08267,7.54267,0"/></g><g id="uuid-e11587dd-887e-4a51-b390-a39de5d044dc"><path id="uuid-8988c1de-7c5a-40d8-84cf-a158a5d147b1" class="uuid-229399ad-2de8-4c49-999d-56deea0a6cf0" d="M362.44864,398.10158l-12.38267,12.37733c-4.932,4.948-12.95867,4.948-17.90533,0l-177.63999-177.63867c-44.81333-44.81466-44.81333-117.45333,0-162.25466,9.46667-9.46533,20.06667-17.13202,31.36-22.97198-2.05332,1.80001-4.06799,3.68001-6.02667,5.63867-44.81333,44.80133-44.81333,117.44,0,162.25467l182.59465,182.59463Z"/></g><g id="uuid-69524203-852b-46f7-b168-5c61ae2f0018"><path id="uuid-88a50806-de68-4f09-853b-1db48a5c01e5" class="uuid-98b0ab95-2c55-429c-bf29-10177f4275d3" d="M489.67332,580.03516h-56.45466c-8.112,0-14.68934,6.57733-14.68934,14.69067v39.76933c0,8.112,6.57733,14.688,14.68933,14.688h159.576c8.11333,0,14.68933-6.576,14.68933-14.688v-39.76933c0-8.11333-6.576-14.69067-14.68933-14.69067h-56.45467"/></g><g id="uuid-37c91553-eedf-4670-92bc-395491fb42d8"><path id="uuid-65c3f001-a99a-472a-a007-bf6ca9f4183c" class="uuid-98b0ab95-2c55-429c-bf29-10177f4275d3" d="M614.07623,356.40491v-143.44799c0-24.376,19.67333-44.136,43.94267-44.136,8.08933,0,14.648,6.58667,14.648,14.71199v204.67466c0,13.12666-4.36933,25.87734-12.41467,36.22399l-65.332,84.64666c-5.972,7.73867-9.212,17.25066-9.212,27.04133v43.17999"/></g><g id="uuid-28926595-a6cd-4433-978a-e297785ae77d"><path id="uuid-3c1caba3-5fcc-4ab4-802b-589a25bbf0b6" class="uuid-98b0ab95-2c55-429c-bf29-10177f4275d3" d="M439.03595,580.03516v-69.37733c0-26.408,9.556-51.91466,26.88667-71.77066l81.08-89.88666c15.95066-18.37467,43.70933-20.28001,62.00133-4.26001,6.09734,5.34001,6.72934,14.63466,1.41334,20.76001l-92.90534,104.19066"/></g><g id="uuid-3a1839fb-9eb3-472b-84e8-eef0a1cc06e5"><path id="uuid-cb33a5af-f572-40b8-8b76-b01151cc6f93" class="uuid-98b0ab95-2c55-429c-bf29-10177f4275d3" d="M75.18239,634.49476v-39.76933c0-8.11333,6.57733-14.69067,14.69067-14.69067h159.57466c8.11334,0,14.68933,6.57733,14.68933,14.69067v39.76933c0,8.112-6.57601,14.68933-14.68933,14.68933H89.87306c-8.11333,0-14.69067-6.57733-14.69067-14.68933Z"/></g><g id="uuid-48b93af9-802a-40b7-9138-e12f043b15c0"><path id="uuid-9953ceac-fcf2-402f-be0b-7700b23349d4" class="uuid-98b0ab95-2c55-429c-bf29-10177f4275d3" d="M10.00013,270.93093v117.27599c0,13.128,4.36933,25.87734,12.41467,36.224l65.332,84.64666c5.972,7.73867,9.212,17.25199,9.212,27.04266v43.17867"/></g><g id="uuid-57823ef5-9bfb-42e9-b8b0-cd034b600025"><path id="uuid-237fe984-47d3-4b59-9347-6348eab5aa62" class="uuid-98b0ab95-2c55-429c-bf29-10177f4275d3" d="M68.59066,356.40491v-143.44799c0-24.376-19.67333-44.136-43.94267-44.136-8.08933,0-14.648,6.58667-14.648,14.71199v40.30134"/></g><g id="uuid-5ff7a779-39ff-4b54-852c-4027fdeadce7"><path id="uuid-36161135-375e-4aec-9535-b843d93b2336" class="uuid-98b0ab95-2c55-429c-bf29-10177f4275d3" d="M131.80479,432.29038l33.35067,37.40133"/></g><g id="uuid-4cd765ca-6f64-4122-ae7e-b07221afecca"><path id="uuid-a9cdd83f-b2f1-42f1-9f11-24932c79d124" class="uuid-98b0ab95-2c55-429c-bf29-10177f4275d3" d="M243.63092,580.03516v-69.37733c0-26.408-9.556-51.91466-26.88667-71.77066l-81.08-89.88666c-15.95066-18.37467-43.70933-20.28001-62.00133-4.26001-6.09734,5.34001-6.72934,14.63466-1.41334,20.76001l28.02133,31.42399"/></g><g id="uuid-c363a88f-0df8-4c55-8c83-5eb24193261d"><path id="uuid-3d736482-f770-4481-8f9b-880e93c5de73" class="uuid-98b0ab95-2c55-429c-bf29-10177f4275d3" d="M496.35289,264.1992l-146.27999,146.27866c-4.94533,4.94667-12.96666,4.94667-17.912,0l-177.64401-177.64266c-44.80399-44.80533-44.80534-117.44666,0-162.252l.00269-.00267c49.46399-49.46401,129.65999-49.46401,179.12399-.00134l7.47334,7.47333,7.47334-7.47333c49.464-49.46266,129.66-49.46266,179.12399.00134l.00267.00267c43.96931,43.968,44.78932,114.74533,2.46265,159.71333"/></g></g></g></g></g></svg>