<?xml version="1.0" encoding="UTF-8"?><svg id="uuid-5075d555-7a2b-46ce-b1c9-6f506deca30b" xmlns="http://www.w3.org/2000/svg" viewBox="0 0 572 512"><defs><style>.uuid-8c54786d-ad92-49ed-8fa5-cc1e2f358fcb{fill:#ffef8f;}.uuid-8c54786d-ad92-49ed-8fa5-cc1e2f358fcb,.uuid-296105a9-c3d7-4bd4-968b-6302ac3c5423,.uuid-2982de80-da73-45b1-af16-a6ba1d869baa,.uuid-e6fb5688-20e8-42aa-8087-452015f069ec,.uuid-d878e193-0776-41d7-afa4-12ac74e4fd7b,.uuid-c040c485-a41d-4a84-a9cd-d6d42152048e{stroke-width:0px;}.uuid-296105a9-c3d7-4bd4-968b-6302ac3c5423{fill:#000;}.uuid-2982de80-da73-45b1-af16-a6ba1d869baa{fill:#fff5b5;}.uuid-e6fb5688-20e8-42aa-8087-452015f069ec{fill:#ffc919;}.uuid-d878e193-0776-41d7-afa4-12ac74e4fd7b{fill:#fff;}.uuid-c040c485-a41d-4a84-a9cd-d6d42152048e{fill:#ffd54d;}</style></defs><path class="uuid-2982de80-da73-45b1-af16-a6ba1d869baa" d="M7.5,76.8v283.7c0,38.29999,31.5,69.29999,70.3,69.29999h281.60002l84.5,74.70001v-74.70001h50.29999c38.79999,0,70.29999-31,70.29999-69.29999V76.8c0-38.3-31.5-69.3-70.29999-69.3H77.8C39,7.5,7.5,38.5,7.5,76.8Z"/><path class="uuid-8c54786d-ad92-49ed-8fa5-cc1e2f358fcb" d="M494.20001,7.5h-20c38.79999,0,50.29999,31,50.29999,69.3v283.7c0,38.29999-11.5,69.29999-50.29999,69.29999h20c38.79999,0,70.29999-31,70.29999-69.29999V76.8c0-38.3-31.5-69.3-70.29999-69.3Z"/><circle class="uuid-c040c485-a41d-4a84-a9cd-d6d42152048e" cx="283.79999" cy="218.1" r="151.2"/><path class="uuid-e6fb5688-20e8-42aa-8087-452015f069ec" d="M283.79999,67c-6.79999,0-13.5.4-20,1.3,74,9.8,131.20001,73.2,131.20001,149.89999s-57.10001,140.09999-131.20001,149.89998c6.5.89999,13.20001,1.29999,20,1.29999,83.5,0,151.20001-67.70001,151.20001-151.2s-67.70001-151.2-151.20001-151.2v.00003Z"/><path class="uuid-d878e193-0776-41d7-afa4-12ac74e4fd7b" d="M365.29999,227.5c0,44.89999-36.5,81.29999-81.5,81.29999s-81.5-36.39999-81.5-81.3h163v.00002Z"/><path class="uuid-296105a9-c3d7-4bd4-968b-6302ac3c5423" d="M443.89999,512c-1.79999,0-3.60001-.60001-5-1.89999l-82.39999-72.89999H77.8c-42.9,0-77.8-34.5-77.8-76.79999v-221.60001c0-4.10001,3.4-7.5,7.5-7.5s7.5,3.39999,7.5,7.5v221.60001c0,34.10001,28.2,61.79999,62.8,61.79999h281.60002c1.79999,0,3.60001.70001,5,1.89999l72.10001,63.70001v-58.10001c0-4.10001,3.39999-7.5,7.5-7.5h50.30002c34.59998,0,62.79999-27.70001,62.79999-61.79999V76.8c0-34.1-28.20001-61.8-62.79999-61.8H77.8c-34.6,0-62.8,27.7-62.8,61.8v22.4c0,4.1-3.4,7.5-7.5,7.5S0,103.3,0,99.2v-22.4c0-42.3,34.9-76.8,77.8-76.8h416.40001c42.89996,0,77.79999,34.5,77.79999,76.8v283.7c0,42.29999-34.90002,76.79999-77.79999,76.79999h-42.79999v67.20001c0,3.89999-3.60001,7.5-7.5,7.5h-.00003Z"/><path class="uuid-296105a9-c3d7-4bd4-968b-6302ac3c5423" d="M283.79999,376.79999c-87.5,0-158.7-71.20001-158.7-158.7S196.3,59.5,283.79999,59.5s158.70001,71.2,158.70001,158.7c0,42.30424-9.79999,63.8-28.20001,90.40001-2.39999,3.39999-7,4.20001-10.39999,1.89999-3.39999-2.39999-4.20001-7-1.89999-10.39999,16.70001-24.10001,25.60001-52.39999,25.60001-81.8,0-79.2-64.5-143.7-143.69998-143.7s-143.7,64.5-143.7,143.7,64.5,143.7,143.7,143.7c31.35317,0,66.79999-12.10001,92.70001-33.89999,3.20001-2.70001,7.89999-2.29999,10.60001.89999,2.70001,3.20001,2.29999,7.89999-.89999,10.60001-28.60001,24.20001-64.89999,37.5-102.39999,37.5h0l-.10007-.30002Z"/><path class="uuid-296105a9-c3d7-4bd4-968b-6302ac3c5423" d="M258.29999,194.5c-4.10001,0-7.5-3.39999-7.5-7.5,0-9.7-7.89999-17.60001-17.60001-17.60001s-17.60001,7.89999-17.60001,17.60001-3.39999,7.5-7.5,7.5-7.5-3.39999-7.5-7.5c0-18,14.60001-32.60001,32.60001-32.60001s32.60001,14.60001,32.60001,32.60001c0,4.49799-3.39999,7.5-7.5,7.5Z"/><path class="uuid-296105a9-c3d7-4bd4-968b-6302ac3c5423" d="M359.60001,194.5c-4.10001,0-7.5-3.39999-7.5-7.5,0-9.7-7.89999-17.60001-17.60001-17.60001s-17.60001,7.89999-17.60001,17.60001c0,5.87897-3.39999,7.5-7.5,7.5s-7.5-3.39999-7.5-7.5c0-18,14.60001-32.60001,32.60001-32.60001s32.60001,14.60001,32.60001,32.60001c0,7.71424-3.39999,7.5-7.5,7.5Z"/><path class="uuid-296105a9-c3d7-4bd4-968b-6302ac3c5423" d="M283.79999,316.39999c-49.10001,0-89-39.89999-89-88.8,0-8.95,3.39999-7.5,7.5-7.5h163c4.10001,0,7.5,3.39999,7.5,7.5,0,48.99998-39.89999,88.8-89,88.8h0ZM210.2,235c3.8,37.20001,35.40001,66.29999,73.59999,66.29999s69.89999-29.10001,73.60001-66.3h-147.3l.10001.00002Z"/></svg>