<?xml version="1.0" encoding="UTF-8"?><svg id="uuid-c01bbaa7-c940-49f6-a48f-eff49362f502" xmlns="http://www.w3.org/2000/svg" xmlns:xlink="http://www.w3.org/1999/xlink" viewBox="0 0 682.66663 682.66699"><defs><style>.uuid-de7249a2-ab9e-452a-b4c9-e00a9155de93{fill:#99e6fc;}.uuid-de7249a2-ab9e-452a-b4c9-e00a9155de93,.uuid-00419311-79d4-4ba7-b3d7-4b7f7429afb9,.uuid-454590fa-05a5-475c-9c7d-24e458e94215,.uuid-942f229b-d774-489a-ba98-c5d746c51a77,.uuid-d2923d9c-fd00-4ecf-aa77-866e14ef28ce,.uuid-ee4b77e3-58b6-43b8-a9d6-684eb48963df,.uuid-6ee291dc-c151-4dfb-a0c3-f14beb23ed4a,.uuid-d81c59a6-0051-4aad-a579-37dbda2f895f{stroke-width:0px;}.uuid-00419311-79d4-4ba7-b3d7-4b7f7429afb9,.uuid-3979597b-41f2-451f-a21b-1db3b1085e1d{fill:none;}.uuid-454590fa-05a5-475c-9c7d-24e458e94215{fill:#fee45a;}.uuid-3979597b-41f2-451f-a21b-1db3b1085e1d{stroke:#000;stroke-linecap:round;stroke-linejoin:round;stroke-width:20px;}.uuid-8128ecd0-97af-416c-9224-efdfe436a91a{clip-path:url(#uuid-9eea715a-2ee0-4a47-a340-bc275bde7fbe);}.uuid-942f229b-d774-489a-ba98-c5d746c51a77{fill:#62dbfb;}.uuid-d2923d9c-fd00-4ecf-aa77-866e14ef28ce{fill:#000;}.uuid-ee4b77e3-58b6-43b8-a9d6-684eb48963df{fill:#fed402;}.uuid-6ee291dc-c151-4dfb-a0c3-f14beb23ed4a{fill:#fef0ae;}.uuid-d81c59a6-0051-4aad-a579-37dbda2f895f{fill:#fe93d3;}</style><clipPath id="uuid-9eea715a-2ee0-4a47-a340-bc275bde7fbe"><rect class="uuid-00419311-79d4-4ba7-b3d7-4b7f7429afb9" y=".00037" width="682.66663" height="682.66663"/></clipPath></defs><g id="uuid-dcec1b4b-af67-4ecc-a11b-c52ef116570b"><g id="uuid-6a1627f3-1af7-4c47-a73c-385388989c68"><path id="uuid-aa6635cc-f809-4538-8528-17eec62827ed" class="uuid-6ee291dc-c151-4dfb-a0c3-f14beb23ed4a" d="M286.45705,672.66699l27.868-318.53866h52.908l27.868,318.53866h-108.644Z"/></g><g id="uuid-2152a843-eb1b-4388-8c96-f127f8a54bc4"><path id="uuid-8c4c124c-b593-4cb0-b979-4471a3f24276" class="uuid-d81c59a6-0051-4aad-a579-37dbda2f895f" d="M177.81253,672.66699l90.41867-318.53866h46.09466l-27.86933,318.53866h-108.644Z"/></g><g id="uuid-d10f9248-2839-42a3-9949-05ad18edcfa4"><path id="uuid-c537fbd6-fd41-49db-a5b3-11aa83de8521" class="uuid-de7249a2-ab9e-452a-b4c9-e00a9155de93" d="M504.8541,672.66699l-88.996-318.53866h-48.62533l28.97733,318.53866h108.644Z"/></g><g id="uuid-145021a1-0c5f-4d33-bc9b-aa6531c94720"><path id="uuid-307da027-d424-456c-aad5-7478c26f478a" class="uuid-942f229b-d774-489a-ba98-c5d746c51a77" d="M415.85931,354.12862h-33.148l68.80933,318.53866h53.33334l-88.99466-318.53866Z"/></g><g id="uuid-d0277b35-7ff3-462b-a8ac-4b06f04b13d6"><g class="uuid-8128ecd0-97af-416c-9224-efdfe436a91a"><g id="uuid-11360c3c-fd21-4fbf-93c7-a4ac35ffb1e5"><g id="uuid-6f150d93-9afb-4a94-96ef-964901aa05e4"><path id="uuid-d841eb6a-dc81-45e6-95fe-7b9ada384fb3" class="uuid-454590fa-05a5-475c-9c7d-24e458e94215" d="M361.68223,22.67358l59.51333,121.44c3.284,6.7,9.668,11.352,17.06267,12.43467l133.41866,19.524c18.51467,2.70933,25.93866,25.37867,12.6,38.47334l-96.80933,95.03464c-5.28,5.18266-7.68667,12.612-6.44533,19.89734l22.816,133.97598c3.14933,18.49198-16.344,32.54268-32.94933,23.75065l-118.93866-62.972c-6.63867-3.51599-14.59466-3.51599-21.23466,0l-118.93866,62.972c-16.60534,8.79199-36.09867-5.25867-32.94934-23.75065l22.81733-133.97598c1.24-7.28534-1.16533-14.71466-6.44533-19.89734l-96.81065-95.03466c-13.33866-13.09466-5.91333-35.764,12.6-38.47333l133.42-19.524c7.39466-1.08266,13.77867-5.73467,17.06266-12.43466l59.51334-121.44c8.28-16.89733,32.41733-16.89733,40.69733,0"/></g><g id="uuid-77ebd5ad-9b4f-4bd8-bd2a-4cf312598338"><path id="uuid-7506e40a-05fa-436d-a912-2baf0aba8fe9" class="uuid-ee4b77e3-58b6-43b8-a9d6-684eb48963df" d="M571.67705,176.07197l-133.41866-19.524c-7.39466-1.08267-13.77867-5.73467-17.06266-12.43467l-59.51333-121.44c-8.28133-16.89733-32.41734-16.89733-40.69867,0l-4.46533,9.11333,51.34399,104.772c3.284,6.7,9.66801,11.352,17.06266,12.43333l133.41867,19.524c18.51467,2.71067,25.93867,25.38,12.59867,38.47333l-96.80934,95.03467c-5.27867,5.18267-7.68533,12.61333-6.44533,19.89866l22.81733,133.97598c1.18667,6.96267-.84,13.29732-4.712,18.01868l25.096,13.28666c16.60534,8.79199,36.09866-5.25867,32.94933-23.75067l-22.81733-133.976c-1.24-7.28533,1.16667-14.71467,6.44533-19.89733l96.80933-95.03466c13.34-13.09333,5.916-35.764-12.59867-38.47333"/></g><g id="uuid-99a8908d-ccd0-45b7-8545-76cce4a489dc"><path id="uuid-c337abf8-e4a1-4596-aa51-e6d4e28e3158" class="uuid-3979597b-41f2-451f-a21b-1db3b1085e1d" d="M385.41664,561.9762l9.68533,110.69066"/></g><g id="uuid-7d679dae-af79-4788-a4fc-6c8bc3bf4a87"><path id="uuid-8516993e-e039-4d73-b25e-38bd6ffd4132" class="uuid-3979597b-41f2-451f-a21b-1db3b1085e1d" d="M374.40623,436.12074l6.43733,73.584"/></g><g id="uuid-43188f61-aef8-4c8a-8a26-24017101ac4e"><path id="uuid-5dd1e702-6759-4792-8c4d-fbcb07716ccb" class="uuid-3979597b-41f2-451f-a21b-1db3b1085e1d" d="M286.45705,672.66699l20.64-235.93065"/></g><g id="uuid-e9e9fa85-0202-4956-9cbb-d757a49669ce"><path id="uuid-96b40c89-f559-4cab-858c-9836a96437f7" class="uuid-3979597b-41f2-451f-a21b-1db3b1085e1d" d="M177.81253,672.66699l55.94933-197.10265"/></g><g id="uuid-2344a3b9-4e6c-4fd1-a6ec-0acfc0ae3a1c"><path id="uuid-ade6906f-f544-4f6d-8769-c54ccac02a2e" class="uuid-3979597b-41f2-451f-a21b-1db3b1085e1d" d="M504.8541,672.66699l-54.2-193.99732"/></g><g id="uuid-efeee2d7-7ee5-4024-aa82-36588b5eb0e4"><path id="uuid-b660d3e4-868f-43ea-b3e2-d9e8fe3f7236" class="uuid-3979597b-41f2-451f-a21b-1db3b1085e1d" d="M279.26425,107.80501l-17.79333,36.308c-3.284,6.7-9.668,11.35333-17.06267,12.43466l-133.41866,19.524c-18.51466,2.70934-25.93867,25.38-12.60001,38.47333l96.80933,95.03465c5.28,5.18266,7.68667,12.61334,6.44533,19.89734l-22.816,133.97598c-3.14933,18.49198,16.344,32.54398,32.94933,23.75065l118.93866-62.972c6.63867-3.51467,14.59466-3.51467,21.23466,0l118.93866,62.972c16.60533,8.79333,36.09867-5.25867,32.94934-23.75065l-22.81866-133.97598c-1.23867-7.284,1.16667-14.71466,6.44533-19.89734l96.81066-95.03466c13.34001-13.09333,5.91467-35.764-12.59867-38.47333l-133.42-19.524c-7.39466-1.08133-13.77867-5.73466-17.06266-12.43467l-59.51333-121.44c-8.28-16.89733-32.416-16.89733-40.69733,0l-18.31733,37.37868"/></g><g id="uuid-a395cd28-49b9-41b5-bd76-78664afdc8f6"><path id="uuid-f217d23e-c59b-4151-96eb-aec2eeb1966f" class="uuid-3979597b-41f2-451f-a21b-1db3b1085e1d" d="M246.06906,386.30314l8.152-47.872c4.17067-24.48933-3.92667-49.50399-21.66267-66.91333"/></g><g id="uuid-60bb925a-b457-43c9-af9a-73c8a7cb8131"><path id="uuid-99568b5a-9057-4665-aa17-84cb8af21257" class="uuid-d2923d9c-fd00-4ecf-aa77-866e14ef28ce" d="M212.8672,94.58048c12.86933,0,12.89067-20,0-20-12.868,0-12.88933,20,0,20"/></g><g id="uuid-0fc18a18-82a7-472b-8019-cac8d1cb0f68"><path id="uuid-9af8ce3e-a3a7-4e6b-9e9a-53f97eec50e3" class="uuid-d2923d9c-fd00-4ecf-aa77-866e14ef28ce" d="M93.25266,64.74316c12.868,0,12.88933-20,0-20-12.86933,0-12.89067,20,0,20"/></g><g id="uuid-1827656f-046c-4587-8dd9-6dc9fbf1fca6"><path id="uuid-2f395b13-e8f2-47c1-a02a-8c10061ab1d2" class="uuid-d2923d9c-fd00-4ecf-aa77-866e14ef28ce" d="M56.94013,384.42808c12.868,0,12.89067-20,0-20-12.868,0-12.89067,20,0,20"/></g><g id="uuid-0ffa1235-3330-463a-962a-dea6a72d6f74"><path id="uuid-d05f91ad-7499-4d79-ba5d-b8e7939e166c" class="uuid-d2923d9c-fd00-4ecf-aa77-866e14ef28ce" d="M129.56386,571.9762c12.86933,0,12.89067-20,0-20-12.868,0-12.89067,20,0,20"/></g><g id="uuid-1989c1c3-e4a6-4294-a81b-4a05b29f08a0"><path id="uuid-a3e75136-838a-4547-ae8e-1797d823d9c8" class="uuid-d2923d9c-fd00-4ecf-aa77-866e14ef28ce" d="M469.79945,94.58048c12.868,0,12.88933-20,0-20-12.86933,0-12.89067,20,0,20"/></g><g id="uuid-c37d3370-a263-4f7a-af46-9be03c17d250"><path id="uuid-3428ffc1-75ee-4e08-84aa-2572ea0fb6e3" class="uuid-d2923d9c-fd00-4ecf-aa77-866e14ef28ce" d="M589.41395,64.74316c12.86933,0,12.89067-20,0-20-12.868,0-12.88933,20,0,20"/></g><g id="uuid-965aef9e-e306-4cca-bfb4-966a5b7e32bc"><path id="uuid-f5683b4c-eec3-43e1-8c6a-e17b3792decd" class="uuid-d2923d9c-fd00-4ecf-aa77-866e14ef28ce" d="M625.72648,384.42808c12.868,0,12.89067-20,0-20-12.868,0-12.89067,20,0,20"/></g><g id="uuid-ea3be1c3-5d71-4ad0-b8da-57804bce94e4"><path id="uuid-e30d0f2e-7051-463e-86a0-a0778138ccba" class="uuid-d2923d9c-fd00-4ecf-aa77-866e14ef28ce" d="M553.10275,571.9762c12.868,0,12.89067-20,0-20-12.86933,0-12.89067,20,0,20"/></g></g></g></g></g></svg>