<?xml version="1.0" encoding="UTF-8"?><svg id="uuid-f67e111b-3585-4012-9f1a-8915095dc98b" xmlns="http://www.w3.org/2000/svg" viewBox="0 0 512 452.66895"><defs><style>.uuid-dc36081a-aaa3-48f8-8225-c1745f537c81{fill:#95d6a4;}.uuid-dc36081a-aaa3-48f8-8225-c1745f537c81,.uuid-fe27c249-e040-49fa-96aa-c134eed1bfa2,.uuid-2acbfb4f-7886-44d4-8857-aed2621f1c83,.uuid-bceebee9-9e0f-44d1-99f5-2775991e0a75,.uuid-2d6f4344-012d-4081-badf-ae33c85d1bec,.uuid-3ac89bc0-f32d-48ce-bf90-bacde659485c,.uuid-24401504-4bd0-484a-8e32-6e47e4010a88{stroke-width:0px;}.uuid-fe27c249-e040-49fa-96aa-c134eed1bfa2{fill:#5e54ac;}.uuid-2acbfb4f-7886-44d4-8857-aed2621f1c83{fill:#f9f6f9;}.uuid-bceebee9-9e0f-44d1-99f5-2775991e0a75{fill:#6b61b1;}.uuid-2d6f4344-012d-4081-badf-ae33c85d1bec{fill:#b3e59f;}.uuid-3ac89bc0-f32d-48ce-bf90-bacde659485c{fill:#000;}.uuid-24401504-4bd0-484a-8e32-6e47e4010a88{fill:#dddaec;}</style></defs><path class="uuid-2d6f4344-012d-4081-badf-ae33c85d1bec" d="M83.591,131.80099h197.95898c42.02399,0,76.091,34.067,76.091,76.091v98.80602c0,42.02399-34.06702,76.091-76.091,76.091h-99.476l-47.619,54.41299c-14.124,16.13901-40.708,6.14999-40.708-15.297v-39.116h-10.156c-42.024,0-76.091-34.06702-76.091-76.091v-98.806c0-42.024,34.067-76.091,76.091-76.091l.00002-.00002Z"/><path class="uuid-dc36081a-aaa3-48f8-8225-c1745f537c81" d="M133.55,438.188c-14.33,14.72-39.8,4.70999-39.8-16.28v-39.12h-10.16c-42.02,0-76.09-34.07001-76.09-76.09v-98.81c0-42.02,34.07-76.09,76.09-76.09h33.22c-42.03,0-76.09,34.07001-76.09,76.09v98.81c0,42.01999,34.06,76.09,76.09,76.09h10.16v39.12c0,6.69,2.59,12.26999,6.58,16.28Z"/><path class="uuid-2acbfb4f-7886-44d4-8857-aed2621f1c83" d="M428.409,7.50199h-197.96001c-42.024,0-76.091,34.067-76.091,76.091v98.806c0,42.024,34.067,76.091,76.091,76.091h99.476l47.61899,54.41299c14.12399,16.13901,40.70801,6.14999,40.70801-15.297v-39.116h10.15701c42.02399,0,76.091-34.067,76.091-76.091v-98.806c0-42.024-34.06702-76.091-76.091-76.091Z"/><path class="uuid-24401504-4bd0-484a-8e32-6e47e4010a88" d="M266.608,258.48899h-36.16c-42.02,0-76.09-34.07001-76.09-76.09v-98.81c0-42.02,34.07001-76.09,76.09-76.09h36.16c-42.02,0-76.09,34.07-76.09,76.09v98.81c0,42.02,34.07001,76.09,76.09,76.09Z"/><path class="uuid-bceebee9-9e0f-44d1-99f5-2775991e0a75" d="M408.47699,147.04198l-10.35001-5.97c.25-2.37.37-4.77.37-7.19,0-2.42999-.12-4.83-.37-7.19l10.35001-5.98c7.85001-4.53,10.53-14.56,6-22.41l-11.72-20.29c-4.53-7.85-14.56-10.54-22.39999-6.01l-10.35001,5.98c-3.87-2.82-8.04001-5.24-12.45001-7.21v-11.93c0-9.06-7.35001-16.41-16.41-16.41h-23.44c-9.06,0-16.39999,7.35-16.39999,16.41v11.93c-4.41,1.97-8.57999,4.39-12.45001,7.21l-10.35001-5.98c-7.85001-4.53-17.88-1.84-22.41,6.01l-11.72,20.29c-4.53,7.85-1.84,17.88,6.00999,22.41l10.34001,5.98c-.23999,2.36-.37,4.75999-.37,7.19,0,2.42.13,4.82001.37,7.19l-10.34,5.97c-7.85001,4.53-10.53999,14.56-6.00999,22.41l11.71999,20.3c4.53,7.84,14.56,10.53,22.41,6l10.35001-5.97c3.87,2.81,8.04001,5.23,12.45001,7.2v11.94c0,9.06,7.34,16.39999,16.39999,16.39999h23.44c9.06,0,16.41-7.34,16.41-16.39999v-11.94c4.41-1.97,8.57999-4.39,12.45001-7.2l10.35001,5.97c7.84,4.53,17.87,1.84,22.39999-6l11.72-20.3c4.53-7.85001,1.85001-17.88-6-22.41ZM329.427,172.42199c-21.28,0-38.54001-17.25999-38.54001-38.53999,0-21.29001,17.26001-38.54,38.54001-38.54,21.29001,0,38.54001,17.24999,38.54001,38.54,0,21.28-17.25,38.54001-38.54001,38.54001v-.00002Z"/><path class="uuid-fe27c249-e040-49fa-96aa-c134eed1bfa2" d="M267.65701,189.74799l-11.72-20.298c-4.53-7.845-1.84-17.88,6.005-22.41l10.34799-5.972c-.24701-2.362-.37201-4.76199-.37201-7.19,0-2.429.125-4.828.37201-7.19l-10.34799-5.972c-7.845-4.53-10.535-14.565-6.005-22.41l11.72-20.298c1.97501-3.421,4.996-5.86,8.42499-7.15-7.383-2.79-15.91.092-19.98599,7.15l-11.72,20.298c-4.53,7.845-1.84,17.88,6.005,22.41l10.34799,5.972c-.24701,2.362-.37201,4.76199-.37201,7.19,0,2.429.125,4.828.37201,7.19l-10.34799,5.972c-7.845,4.53-10.535,14.565-6.005,22.41l11.72,20.298c4.07501,7.058,12.603,9.94,19.98599,7.14999-3.42899-1.289-6.45001-3.729-8.42499-7.14999Z"/><path class="uuid-fe27c249-e040-49fa-96aa-c134eed1bfa2" d="M329.267,225.322h-11.55801c-9.06,0-16.405-7.345-16.405-16.405v-11.937c-4.41199-1.96899-8.58099-4.39-12.44901-7.201l6.15302-3.55099c3.86801,2.811,13.44199,8.784,17.85501,10.752v11.937c0,9.06,7.34399,16.405,16.40399,16.405Z"/><path class="uuid-fe27c249-e040-49fa-96aa-c134eed1bfa2" d="M329.267,42.43499h-11.55801c-9.06,0-16.405,7.345-16.405,16.405v11.937c-4.41199,1.969-8.58099,4.39-12.44901,7.201l6.15302,3.551c3.86801-2.811,13.44199-8.784,17.85501-10.752v-11.938c0-9.059,7.34399-16.404,16.40399-16.40401Z"/><path class="uuid-3ac89bc0-f32d-48ce-bf90-bacde659485c" d="M492.92499,30.44599c-2.63599-3.194-7.36301-3.647-10.55899-1.012-3.19501,2.636-3.64801,7.363-1.01199,10.559,10.09,12.227,15.646,27.71,15.646,43.596v98.81001c0,37.82001-30.76901,68.59-68.59,68.59h-10.16c-4.142,0-7.5,3.358-7.5,7.5v39.12c0,8.02499-5.26501,12.86401-10.19101,14.716-4.92999,1.853-12.08301,1.67899-17.375-4.36499l-47.61002-54.41c-1.42401-1.62701-3.48099-2.561-5.64401-2.561h-99.48001c-37.821,0-68.59-30.77-68.59-68.59v-98.81c0-37.821,30.77-68.59,68.59-68.59h197.96002c11.245,0,22.38501,2.778,32.21301,8.034,3.651,1.953,8.19601.576,10.14999-3.077,1.953-3.653.57599-8.197-3.077-10.15-11.99799-6.415-25.58301-9.806-39.28699-9.806h-197.959c-46.092,0-83.59,37.498-83.59,83.59v40.71h-63.27C37.498,124.3,0,161.798,0,207.88999v98.81c0,46.09201,37.498,83.59,83.59,83.59h2.66v31.60999c0,12.927,7.818,24.21799,19.917,28.76599,3.588,1.349,7.281,2.00299,10.926,2.00299,8.649,0,17.02-3.686,23.011-10.53l45.369-51.849h17.19701c4.142,0,7.5-3.358,7.5-7.5s-3.358-7.5-7.5-7.5h-20.60001c-2.16299,0-4.22.93399-5.644,2.561l-47.60899,54.40799c-5.292,6.04401-12.444,6.22-17.373,4.366-4.928-1.85199-10.194-6.69299-10.194-14.72501v-39.11002c0-4.142-3.358-7.5-7.5-7.5h-10.16c-37.821,0-68.59-30.76999-68.59-68.59v-98.81c0-37.821,30.769-68.59,68.59-68.59h63.27v43.10001c0,46.09201,37.49899,83.59,83.59,83.59h96.077l23.61301,26.98599v13.724c0,37.82101-30.76999,68.59-68.59,68.59h-48.89999c-4.142,0-7.5,3.358-7.5,7.5s3.358,7.5,7.5,7.5h48.89999c44.978,0,81.75299-35.71201,83.50601-80.26801l6.841,7.81799c5.992,6.84399,14.36099,10.52899,23.01099,10.52899,3.64499,0,7.341-.655,10.92801-2.00299,12.09702-4.547,19.914-15.83499,19.914-28.75699v-31.62h2.66c46.09201,0,83.58997-37.49802,83.58997-83.59v-98.81c0-19.362-6.77399-38.235-19.07501-53.143v.00006Z"/><path class="uuid-3ac89bc0-f32d-48ce-bf90-bacde659485c" d="M139.979,292.45399v.47101c0,4.142,3.358,7.5,7.5,7.5s7.5-3.358,7.5-7.5v-.47101c0-4.142-3.358-7.5-7.5-7.5s-7.5,3.358-7.5,7.5Z"/><path class="uuid-3ac89bc0-f32d-48ce-bf90-bacde659485c" d="M176.136,292.45399v.47101c0,4.142,3.358,7.5,7.5,7.5s7.5-3.358,7.5-7.5v-.47101c0-4.142-3.358-7.5-7.5-7.5s-7.5,3.358-7.5,7.5Z"/><path class="uuid-3ac89bc0-f32d-48ce-bf90-bacde659485c" d="M225.16299,292.45399c0-4.142-3.358-7.5-7.5-7.5s-7.5,3.358-7.5,7.5v.47101c0,4.142,3.358,7.5,7.5,7.5s7.5-3.358,7.5-7.5v-.47101Z"/><path class="uuid-3ac89bc0-f32d-48ce-bf90-bacde659485c" d="M423.36499,112.69498c1.65302-6.16699.80499-12.60899-2.388-18.139l-11.71899-20.298c-3.19199-5.53-8.34698-9.485-14.51501-11.138-6.16901-1.653-12.60999-.805-18.13901,2.388l-6.28299,3.627c-1.716-1.085-3.474-2.103-5.267-3.048v-7.249c0-13.181-10.724-23.904-23.905-23.904h-23.439c-13.181,0-23.905,10.724-23.905,23.904v7.249c-1.793.945-3.552,1.962-5.267,3.048l-6.28299-3.627c-11.41501-6.59-26.064-2.666-32.65399,8.75l-11.71899,20.298c-3.192,5.53-4.041,11.972-2.388,18.13899s5.608,11.32201,11.138,14.515l6.286,3.629c-.03999,1.01601-.06,2.03-.06,3.03999,0,1.009.02,2.024.06,3.039l-6.286,3.629c-11.41499,6.591-15.34,21.239-8.75,32.65399l11.71899,20.299c6.591,11.41299,21.23901,15.339,32.65399,8.74899l6.28299-3.627c1.716,1.086,3.474,2.103,5.26801,3.048v7.248c0,13.181,10.724,23.90501,23.905,23.90501h23.43799c13.181,0,23.905-10.724,23.905-23.905v-7.248c1.793-.94501,3.55099-1.96201,5.267-3.048l6.28299,3.627c11.41599,6.589,26.06299,2.66499,32.65399-8.75l11.71899-20.298c3.19299-5.53,4.04099-11.972,2.388-18.13901-1.65201-6.16699-5.608-11.32201-11.138-14.515l-6.28699-3.629c.04001-1.015.06-2.02901.06-3.039s-.01999-2.024-.06-3.039l6.28699-3.63c5.53-3.19299,9.48499-8.34801,11.138-14.515l.00003.00003ZM408.87598,108.81298c-.616,2.297-2.08899,4.217-4.14899,5.407l-10.34799,5.97501c-2.56201,1.479-4.01501,4.325-3.70999,7.267.22,2.12399.33099,4.283.33099,6.41699s-.11099,4.29401-.33099,6.41699c-.30499,2.942,1.14801,5.78799,3.70999,7.267l10.34799,5.974c2.06,1.189,3.53299,3.11,4.14899,5.407s.29999,4.69701-.89001,6.757l-11.71899,20.298c-2.45499,4.25101-7.91199,5.714-12.164,3.259l-10.35199-5.97701c-2.56601-1.481-5.76401-1.313-8.16101.429-3.46899,2.522-7.202,4.68201-11.095,6.42-2.703,1.20599-4.44299,3.88899-4.44299,6.849v11.938c0,4.91-3.995,8.905-8.905,8.905h-23.43701c-4.91,0-8.905-3.995-8.905-8.905v-11.938c0-2.959-1.73999-5.64301-4.44299-6.849-3.89499-1.73801-7.62701-3.89799-11.09601-6.42-1.30899-.952-2.85699-1.43401-4.41101-1.43401-1.29099,0-2.58499.33299-3.75,1.005l-10.35101,5.97701c-4.254,2.455-9.70901.993-12.164-3.259l-11.71899-20.298c-2.455-4.252-.992-9.709,3.25999-12.164l10.34801-5.974c2.56201-1.479,4.01501-4.325,3.70999-7.267-.22-2.12601-.332-4.286-.332-6.41699s.112-4.291.332-6.418c.30499-2.942-1.14801-5.78799-3.70999-7.267l-10.34799-5.974c-2.06-1.189-3.533-3.10899-4.149-5.407s-.3-4.69701.88901-6.757l11.71901-20.298c2.45499-4.252,7.91199-5.716,12.164-3.259l10.35199,5.977c2.56601,1.482,5.76501,1.313,8.16101-.429,3.46701-2.521,7.20001-4.682,11.095-6.42,2.702-1.207,4.44199-3.889,4.44199-6.849v-11.939c0-4.91,3.995-8.904,8.905-8.904h23.43799c4.91,0,8.905,3.995,8.905,8.904v11.938c0,2.959,1.73999,5.642,4.44199,6.849,3.89499,1.738,7.62701,3.899,11.09601,6.42,2.397,1.743,5.595,1.912,8.16101.429l10.35199-5.977c2.06-1.189,4.45901-1.505,6.75699-.89,2.297.616,4.21701,2.089,5.40701,4.149l11.71899,20.298c1.19,2.061,1.50601,4.46001.89001,6.758l.00003.00002Z"/><path class="uuid-3ac89bc0-f32d-48ce-bf90-bacde659485c" d="M329.42899,87.83699c-25.38699,0-46.04099,20.654-46.04099,46.04101s20.65399,46.041,46.04102,46.041,46.04102-20.65401,46.04102-46.041-20.65399-46.041-46.04102-46.041h-.00003ZM329.42899,164.91898c-17.116,0-31.04099-13.925-31.04099-31.041s13.92499-31.041,31.04102-31.041,31.04102,13.925,31.04102,31.041-13.92499,31.041-31.04102,31.041h-.00003Z"/></svg>